# Blender v2.74 (sub 0) OBJ File: ''
# www.blender.org
mtllib cube.mtl
o Cube
v 1.000000 -1.000000 -1.000000
v 1.000000 -1.000000 1.000000
v -1.000000 -1.000000 1.000000
v -1.000000 -1.000000 -1.000000
v 1.000000 1.000000 -0.999999
v 0.999999 1.000000 1.000001
v -1.000000 1.000000 1.000000
v -1.000000 1.000000 -1.000000
vt 0.500496 0.407026
vt 0.251597 0.407026
vt 0.251597 0.655926
vt 0.998295 0.655926
vt 0.998295 0.407026
vt 0.749396 0.407026
vt 0.749396 0.655926
vt 0.500496 0.158127
vt 0.251597 0.158127
vt 0.002698 0.407026
vt 0.002698 0.655926
vt 0.500496 0.655926
vt 0.251597 0.904825
vt 0.500496 0.904825
vn 0.000000 -1.000000 0.000000
vn 0.000000 1.000000 0.000000
vn 1.000000 0.000000 0.000000
vn -0.000000 0.000000 1.000000
vn -1.000000 -0.000000 -0.000000
vn 0.000000 0.000000 -1.000000
usemtl Material
s off
f 2/1/1 3/2/1 4/3/1
f 8/4/2 7/5/2 6/6/2
f 5/7/3 6/6/3 2/1/3
f 6/8/4 7/9/4 3/2/4
f 3/2/5 7/10/5 8/11/5
f 1/12/6 4/3/6 8/13/6
f 1/12/1 2/1/1 4/3/1
f 5/7/2 8/4/2 6/6/2
f 1/12/3 5/7/3 2/1/3
f 2/1/4 6/8/4 3/2/4
f 4/3/5 3/2/5 8/11/5
f 5/14/6 1/12/6 8/13/6
